<svg width="14" height="15" viewBox="0 0 14 15" fill="none" xmlns="http://www.w3.org/2000/svg">
<path d="M12.6684 11.1395L10.8533 2.50979C10.8298 2.39694 10.7843 2.28983 10.7193 2.19464C10.6543 2.09944 10.5711 2.01802 10.4746 1.95506C10.378 1.89209 10.27 1.84883 10.1567 1.82775C10.0433 1.80667 9.92695 1.80818 9.81422 1.83221L7.2543 2.38237C7.02786 2.43195 6.83016 2.56892 6.7042 2.76351C6.57823 2.95809 6.53418 3.19454 6.58164 3.42143L8.39672 12.0511C8.43717 12.248 8.54417 12.425 8.69973 12.5522C8.8553 12.6795 9.04994 12.7494 9.25094 12.75C9.31307 12.7499 9.37502 12.7433 9.43578 12.7303L11.9957 12.1802C12.2224 12.1305 12.4203 11.9932 12.5463 11.7983C12.6723 11.6034 12.7162 11.3666 12.6684 11.1395ZM7.4375 3.2426C7.4375 3.23932 7.4375 3.23768 7.4375 3.23768L9.99688 2.6908L10.179 3.5587L7.61961 4.1094L7.4375 3.2426ZM7.79953 4.96362L10.36 4.41401L10.5427 5.28354L7.98438 5.83369L7.79953 4.96362ZM8.16266 6.6901L10.7231 6.13994L11.4505 9.59838L8.89 10.1485L8.16266 6.6901ZM11.8125 11.3249L9.25312 11.8717L9.07102 11.0039L11.6304 10.4531L11.8125 11.3199C11.8125 11.3232 11.8125 11.3249 11.8125 11.3249ZM5.6875 2.25002H3.0625C2.83044 2.25002 2.60788 2.34221 2.44378 2.5063C2.27969 2.6704 2.1875 2.89296 2.1875 3.12502V11.875C2.1875 12.1071 2.27969 12.3296 2.44378 12.4937C2.60788 12.6578 2.83044 12.75 3.0625 12.75H5.6875C5.91956 12.75 6.14212 12.6578 6.30622 12.4937C6.47031 12.3296 6.5625 12.1071 6.5625 11.875V3.12502C6.5625 2.89296 6.47031 2.6704 6.30622 2.5063C6.14212 2.34221 5.91956 2.25002 5.6875 2.25002ZM3.0625 3.12502H5.6875V4.00002H3.0625V3.12502ZM3.0625 4.87502H5.6875V10.125H3.0625V4.87502ZM5.6875 11.875H3.0625V11H5.6875V11.875Z" fill="black"/>
</svg>
