<svg width="14" height="15" viewBox="0 0 14 15" fill="none" xmlns="http://www.w3.org/2000/svg">
<path d="M12.6875 3.125V5.3125C12.6875 5.42853 12.6414 5.53981 12.5594 5.62186C12.4773 5.70391 12.366 5.75 12.25 5.75C12.134 5.75 12.0227 5.70391 11.9406 5.62186C11.8586 5.53981 11.8125 5.42853 11.8125 5.3125V3.5625H10.0625C9.94647 3.5625 9.83519 3.51641 9.75314 3.43436C9.67109 3.35231 9.625 3.24103 9.625 3.125C9.625 3.00897 9.67109 2.89769 9.75314 2.81564C9.83519 2.73359 9.94647 2.6875 10.0625 2.6875H12.25C12.366 2.6875 12.4773 2.73359 12.5594 2.81564C12.6414 2.89769 12.6875 3.00897 12.6875 3.125ZM3.9375 11.4375H2.1875V9.6875C2.1875 9.57147 2.14141 9.46019 2.05936 9.37814C1.97731 9.29609 1.86603 9.25 1.75 9.25C1.63397 9.25 1.52269 9.29609 1.44064 9.37814C1.35859 9.46019 1.3125 9.57147 1.3125 9.6875V11.875C1.3125 11.991 1.35859 12.1023 1.44064 12.1844C1.52269 12.2664 1.63397 12.3125 1.75 12.3125H3.9375C4.05353 12.3125 4.16481 12.2664 4.24686 12.1844C4.32891 12.1023 4.375 11.991 4.375 11.875C4.375 11.759 4.32891 11.6477 4.24686 11.5656C4.16481 11.4836 4.05353 11.4375 3.9375 11.4375ZM12.25 9.25C12.134 9.25 12.0227 9.29609 11.9406 9.37814C11.8586 9.46019 11.8125 9.57147 11.8125 9.6875V11.4375H10.0625C9.94647 11.4375 9.83519 11.4836 9.75314 11.5656C9.67109 11.6477 9.625 11.759 9.625 11.875C9.625 11.991 9.67109 12.1023 9.75314 12.1844C9.83519 12.2664 9.94647 12.3125 10.0625 12.3125H12.25C12.366 12.3125 12.4773 12.2664 12.5594 12.1844C12.6414 12.1023 12.6875 11.991 12.6875 11.875V9.6875C12.6875 9.57147 12.6414 9.46019 12.5594 9.37814C12.4773 9.29609 12.366 9.25 12.25 9.25ZM1.75 5.75C1.86603 5.75 1.97731 5.70391 2.05936 5.62186C2.14141 5.53981 2.1875 5.42853 2.1875 5.3125V3.5625H3.9375C4.05353 3.5625 4.16481 3.51641 4.24686 3.43436C4.32891 3.35231 4.375 3.24103 4.375 3.125C4.375 3.00897 4.32891 2.89769 4.24686 2.81564C4.16481 2.73359 4.05353 2.6875 3.9375 2.6875H1.75C1.63397 2.6875 1.52269 2.73359 1.44064 2.81564C1.35859 2.89769 1.3125 3.00897 1.3125 3.125V5.3125C1.3125 5.42853 1.35859 5.53981 1.44064 5.62186C1.52269 5.70391 1.63397 5.75 1.75 5.75ZM10.2812 9.63281L7.21875 11.3828C7.15263 11.4206 7.0778 11.4405 7.00164 11.4405C6.92548 11.4405 6.85065 11.4206 6.78453 11.3828L3.71875 9.63281C3.65166 9.59408 3.59606 9.53824 3.55763 9.47098C3.51919 9.40372 3.49931 9.32746 3.5 9.25V5.75C3.49931 5.67254 3.51919 5.59628 3.55763 5.52902C3.59606 5.46176 3.65166 5.40592 3.71875 5.36719L6.78125 3.61719C6.84737 3.5794 6.9222 3.55952 6.99836 3.55952C7.07452 3.55952 7.14935 3.5794 7.21547 3.61719L10.278 5.36719C10.3451 5.40592 10.4007 5.46176 10.4391 5.52902C10.4775 5.59628 10.4974 5.67254 10.4967 5.75V9.25C10.4977 9.32714 10.4784 9.40318 10.4405 9.47041C10.4027 9.53764 10.3477 9.59367 10.2812 9.63281ZM4.81906 5.75L7 6.99633L9.18094 5.75L7 4.50367L4.81906 5.75ZM4.375 8.99625L6.5625 10.2459V7.75375L4.375 6.50414V8.99625ZM9.625 8.99625V6.50414L7.4375 7.75375V10.2459L9.625 8.99625Z" fill="#343330"/>
</svg>
