<svg width="14" height="15" viewBox="0 0 14 15" fill="none" xmlns="http://www.w3.org/2000/svg">
<path d="M12.25 4H9.625V3.5625C9.625 3.2144 9.48672 2.88056 9.24058 2.63442C8.99444 2.38828 8.6606 2.25 8.3125 2.25H5.6875C5.3394 2.25 5.00556 2.38828 4.75942 2.63442C4.51328 2.88056 4.375 3.2144 4.375 3.5625V4H1.75C1.51794 4 1.29538 4.09219 1.13128 4.25628C0.967187 4.42038 0.875 4.64294 0.875 4.875V11C0.875 11.2321 0.967187 11.4546 1.13128 11.6187C1.29538 11.7828 1.51794 11.875 1.75 11.875H12.25C12.4821 11.875 12.7046 11.7828 12.8687 11.6187C13.0328 11.4546 13.125 11.2321 13.125 11V4.875C13.125 4.64294 13.0328 4.42038 12.8687 4.25628C12.7046 4.09219 12.4821 4 12.25 4ZM5.25 3.5625C5.25 3.44647 5.29609 3.33519 5.37814 3.25314C5.46019 3.17109 5.57147 3.125 5.6875 3.125H8.3125C8.42853 3.125 8.53981 3.17109 8.62186 3.25314C8.70391 3.33519 8.75 3.44647 8.75 3.5625V4H5.25V3.5625ZM12.25 4.875V6.625H10.5V6.1875C10.5 6.07147 10.4539 5.96019 10.3719 5.87814C10.2898 5.79609 10.1785 5.75 10.0625 5.75C9.94647 5.75 9.83519 5.79609 9.75314 5.87814C9.67109 5.96019 9.625 6.07147 9.625 6.1875V6.625H4.375V6.1875C4.375 6.07147 4.32891 5.96019 4.24686 5.87814C4.16481 5.79609 4.05353 5.75 3.9375 5.75C3.82147 5.75 3.71019 5.79609 3.62814 5.87814C3.54609 5.96019 3.5 6.07147 3.5 6.1875V6.625H1.75V4.875H12.25ZM12.25 11H1.75V7.5H3.5V7.9375C3.5 8.05353 3.54609 8.16481 3.62814 8.24686C3.71019 8.32891 3.82147 8.375 3.9375 8.375C4.05353 8.375 4.16481 8.32891 4.24686 8.24686C4.32891 8.16481 4.375 8.05353 4.375 7.9375V7.5H9.625V7.9375C9.625 8.05353 9.67109 8.16481 9.75314 8.24686C9.83519 8.32891 9.94647 8.375 10.0625 8.375C10.1785 8.375 10.2898 8.32891 10.3719 8.24686C10.4539 8.16481 10.5 8.05353 10.5 7.9375V7.5H12.25V11Z" fill="#343330"/>
</svg>
