<svg width="24" height="24" viewBox="0 0 24 24" fill="none" xmlns="http://www.w3.org/2000/svg">
<path d="M12.75 9.375C12.75 9.5975 12.684 9.81501 12.5604 10C12.4368 10.185 12.2611 10.3292 12.0555 10.4144C11.85 10.4995 11.6238 10.5218 11.4055 10.4784C11.1873 10.435 10.9868 10.3278 10.8295 10.1705C10.6722 10.0132 10.565 9.81271 10.5216 9.59448C10.4782 9.37625 10.5005 9.15005 10.5856 8.94448C10.6708 8.73891 10.815 8.56321 11 8.4396C11.185 8.31598 11.4025 8.25 11.625 8.25C11.9234 8.25 12.2095 8.36853 12.4205 8.5795C12.6315 8.79048 12.75 9.07663 12.75 9.375ZM21.75 12.1388C21.7078 14.6646 20.6895 17.0761 18.9086 18.8679C17.1277 20.6596 14.7225 21.6925 12.1969 21.75H11.9934C9.60241 21.7668 7.28965 20.8986 5.50032 19.3125C5.35114 19.1798 5.26076 18.9934 5.24907 18.7941C5.24328 18.6954 5.25698 18.5966 5.28939 18.5032C5.32181 18.4098 5.3723 18.3237 5.43798 18.2498C5.50366 18.176 5.58325 18.1158 5.6722 18.0727C5.76115 18.0295 5.85772 18.0044 5.95639 17.9986C6.15568 17.9869 6.35145 18.0549 6.50063 18.1875C7.0657 18.6931 7.70027 19.1152 8.38501 19.4409L10.875 16.0162C8.73938 15.0947 6.4247 15.4866 5.11876 15.7078C4.56604 15.8033 3.99761 15.7411 3.47862 15.5283C2.95963 15.3156 2.51108 14.9609 2.18438 14.505L2.15626 14.4647L0.864383 12.4022C0.811993 12.3183 0.776708 12.2249 0.760558 12.1273C0.744407 12.0298 0.747711 11.93 0.770278 11.8337C0.792846 11.7374 0.834231 11.6466 0.892053 11.5663C0.949875 11.4861 1.02299 11.4181 1.1072 11.3663L10.5 5.58094V3C10.5 2.80109 10.579 2.61032 10.7197 2.46967C10.8603 2.32902 11.0511 2.25 11.25 2.25H12C13.2922 2.24987 14.5714 2.50658 15.7635 3.00522C16.9556 3.50386 18.0366 4.23447 18.9438 5.15459C19.851 6.07471 20.5663 7.16598 21.048 8.36496C21.5298 9.56395 21.7684 10.8467 21.75 12.1388ZM20.25 12.1181C20.2657 11.0248 20.0638 9.93931 19.6562 8.9247C19.2487 7.91009 18.6434 6.98662 17.8758 6.20798C17.1082 5.42934 16.1934 4.81107 15.1847 4.3891C14.176 3.96713 13.0934 3.74989 12 3.75V6C11.9999 6.12806 11.9671 6.25396 11.9045 6.36572C11.842 6.47748 11.7519 6.57137 11.6428 6.63844L2.53688 12.2428L3.41438 13.6491C3.57988 13.8719 3.80425 14.0442 4.06228 14.1465C4.3203 14.2489 4.60175 14.2772 4.87501 14.2284C6.37501 13.9753 9.4472 13.4559 12.1941 14.9953C13.1533 14.9442 14.0566 14.5275 14.718 13.8309C15.3794 13.1342 15.7487 12.2106 15.75 11.25C15.75 11.0511 15.829 10.8603 15.9697 10.7197C16.1103 10.579 16.3011 10.5 16.5 10.5C16.6989 10.5 16.8897 10.579 17.0303 10.7197C17.171 10.8603 17.25 11.0511 17.25 11.25C17.2482 12.5736 16.7471 13.8478 15.8469 14.818C14.9466 15.7883 13.7135 16.3833 12.3938 16.4841L9.8522 19.9791C10.6077 20.175 11.3866 20.2661 12.1669 20.25C14.3034 20.2002 16.3379 19.326 17.8445 17.8103C19.3511 16.2946 20.2131 14.2549 20.25 12.1181Z" fill="white"/>
</svg>
