<svg width="327" height="39" viewBox="0 0 327 39" fill="none" xmlns="http://www.w3.org/2000/svg">
<path d="M73.687 0.628662L62.6411 29.9518L51.5951 0.628662H42.8175L57.0877 38.6212H68.1868L82.457 0.628662H73.687Z" fill="#2A2725"/>
<path d="M3.78496 38.6212H34.1386L37.4235 29.8768V0.628662H20.0884V8.78063H28.6535V29.8768H9.27759V0.628662H0.5V29.8768L3.78496 38.6212Z" fill="#2A2725"/>
<path d="M116.005 29.8768H96.6211V0.628662H87.8435V29.8768L91.1361 38.6212H121.49L124.782 29.8768V0.628662H116.005V29.8768Z" fill="#2A2725"/>
<path d="M123.811 36.4238H125.442V36.6712H124.767V38.6061H124.494V36.6712H123.811V36.4238ZM126.095 37.0012V38.6061H125.829V36.4163H126.095L126.762 37.8337L127.438 36.4163H127.695V38.6061H127.43V37.0012L126.884 38.1786H126.656L126.102 37.0012H126.095Z" fill="#2A2725"/>
<path d="M145.842 20.135H143.157L142.398 17.7652H138.681L137.952 20.135H135.267L139.219 8.1958H141.867L145.842 20.135ZM139.455 15.4703H141.632L140.547 11.4881L139.462 15.4703H139.455Z" fill="#2A2725"/>
<path d="M153.308 15.7402H151.51V20.135H148.877V8.18823H155.591C156.699 8.18823 157.586 9.06568 157.586 10.1606V13.7679C157.586 14.6678 156.987 15.4178 156.153 15.6652L158.292 20.1275H155.409L153.308 15.7327V15.7402ZM151.51 10.5581V13.3704H154.795C154.901 13.3704 154.977 13.2954 154.977 13.1904V10.7306C154.977 10.6256 154.901 10.5506 154.795 10.5506H151.51V10.5581Z" fill="#2A2725"/>
<path d="M169.611 16.1002V18.1626C169.611 19.2575 168.723 20.135 167.616 20.135H163.458C162.351 20.135 161.463 19.2575 161.463 18.1626V10.1606C161.463 9.06568 162.351 8.18823 163.458 8.18823H167.616C168.723 8.18823 169.611 9.06568 169.611 10.1606V11.953L167.032 12.3805V10.7306C167.032 10.6256 166.956 10.5506 166.849 10.5506H164.278C164.171 10.5506 164.096 10.6256 164.096 10.7306V17.5776C164.096 17.6826 164.171 17.7576 164.278 17.7576H166.849C166.956 17.7576 167.032 17.6826 167.032 17.5776V15.6577L169.611 16.0852V16.1002Z" fill="#2A2725"/>
<path d="M179.443 15.2528H175.961V20.1275H173.328V8.18823H175.961V12.8829H179.443V8.18823H182.076V20.1275H179.443V15.2528Z" fill="#2A2725"/>
<path d="M188.691 20.135H186.058V8.18823H188.691V20.1275V20.135Z" fill="#2A2725"/>
<path d="M191.862 8.18823H200.731V10.5581H197.613V20.135H194.98V10.5581H191.862V8.18823Z" fill="#2A2725"/>
<path d="M203.91 8.18823H211.42V10.5581H206.542V12.8379H211.041V15.2078H206.542V17.7726H211.443V20.1425H203.917V8.18823H203.91Z" fill="#2A2725"/>
<path d="M223.111 16.1002V18.1626C223.111 19.2575 222.223 20.135 221.116 20.135H216.958C215.851 20.135 214.963 19.2575 214.963 18.1626V10.1606C214.963 9.06568 215.851 8.18823 216.958 8.18823H221.116C222.223 8.18823 223.111 9.06568 223.111 10.1606V11.953L220.532 12.3805V10.7306C220.532 10.6256 220.456 10.5506 220.35 10.5506H217.778C217.672 10.5506 217.596 10.6256 217.596 10.7306V17.5776C217.596 17.6826 217.672 17.7576 217.778 17.7576H220.35C220.456 17.7576 220.532 17.6826 220.532 17.5776V15.6577L223.111 16.0852V16.1002Z" fill="#2A2725"/>
<path d="M226.017 8.18823H234.885V10.5581H231.767V20.135H229.135V10.5581H226.017V8.18823Z" fill="#2A2725"/>
<path d="M246.258 8.18823V18.1551C246.258 19.25 245.37 20.1275 244.262 20.1275H239.961C238.853 20.1275 237.965 19.25 237.965 18.1551V8.18823H240.598V17.5851C240.598 17.6901 240.674 17.7651 240.78 17.7651H243.443C243.549 17.7651 243.625 17.6901 243.625 17.5851V8.18823H246.258Z" fill="#2A2725"/>
<path d="M254.58 15.7402H252.782V20.135H250.149V8.18823H256.863C257.971 8.18823 258.859 9.06568 258.859 10.1606V13.7679C258.859 14.6678 258.259 15.4178 257.425 15.6652L259.564 20.1275H256.681L254.58 15.7327V15.7402ZM252.782 10.5581V13.3704H256.067C256.173 13.3704 256.249 13.2954 256.249 13.1904V10.7306C256.249 10.6256 256.173 10.5506 256.067 10.5506H252.782V10.5581Z" fill="#2A2725"/>
<path d="M262.826 8.18823H270.337V10.5581H265.459V12.8379H269.958V15.2078H265.459V17.7726H270.36V20.1425H262.834V8.18823H262.826Z" fill="#2A2725"/>
<path d="M288.765 15.2528H286.823V18.2676C286.823 19.2876 285.988 20.135 284.956 20.135H281.125C280.07 20.135 279.221 19.2951 279.221 18.2676V15.2378C279.221 14.5929 279.532 14.2704 279.964 14.0754C279.623 13.8804 279.312 13.5205 279.312 13.0555V10.0632C279.312 9.04325 280.146 8.1958 281.216 8.1958H284.607C285.639 8.1958 286.474 9.03575 286.474 10.0632V11.1956L283.985 11.6231V10.6406C283.985 10.5356 283.909 10.4607 283.803 10.4607H281.99C281.884 10.4607 281.808 10.5356 281.808 10.6406V12.9355C281.808 13.0405 281.884 13.1155 281.99 13.1155H288.757V15.2678L288.765 15.2528ZM281.724 17.7277C281.724 17.8327 281.8 17.9077 281.906 17.9077H284.243C284.349 17.9077 284.425 17.8327 284.425 17.7277V15.2528H281.906C281.8 15.2528 281.724 15.3278 281.724 15.4328V17.7277Z" fill="#2A2725"/>
<path d="M136.208 26.6746H143.718V29.0444H138.84V31.3243H143.339V33.6941H138.84V36.2589H143.741V38.6288H136.215V26.6896L136.208 26.6746Z" fill="#2A2725"/>
<path d="M156.464 38.6138H153.922L149.894 31.6542V38.6138H147.352V26.6746H149.894L153.922 33.6716V26.6746H156.464V38.6138Z" fill="#2A2725"/>
<path d="M164.209 32.1042H168.617V36.6414C168.617 37.7363 167.73 38.6138 166.622 38.6138H162.358C161.251 38.6138 160.363 37.7363 160.363 36.6414V28.6469C160.363 27.552 161.251 26.6746 162.358 26.6746H166.599C167.707 26.6746 168.594 27.552 168.594 28.6469V30.1018L166.023 30.5293V29.2169C166.023 29.1119 165.947 29.0369 165.841 29.0369H163.178C163.071 29.0369 162.996 29.1119 162.996 29.2169V36.064C162.996 36.1689 163.071 36.2439 163.178 36.2439H165.863C165.969 36.2439 166.045 36.1689 166.045 36.064V34.3616H164.209V32.1042Z" fill="#2A2725"/>
<path d="M174.959 38.6138H172.327V26.6746H174.959V38.6138Z" fill="#2A2725"/>
<path d="M188.054 38.6138H185.512L181.484 31.6542V38.6138H178.942V26.6746H181.484L185.512 33.6716V26.6746H188.054V38.6138Z" fill="#2A2725"/>
<path d="M192.044 26.6746H199.555V29.0444H194.677V31.3243H199.176V33.6941H194.677V36.2589H199.578V38.6288H192.052V26.6896L192.044 26.6746Z" fill="#2A2725"/>
<path d="M203.196 26.6746H210.707V29.0444H205.829V31.3243H210.328V33.6941H205.829V36.2589H210.73V38.6288H203.204V26.6896L203.196 26.6746Z" fill="#2A2725"/>
<path d="M218.779 34.2191H216.981V38.6138H214.349V26.6746H221.063C222.17 26.6746 223.058 27.552 223.058 28.6469V32.2542C223.058 33.1541 222.459 33.9041 221.624 34.1591L223.763 38.6213H220.881L218.779 34.2266V34.2191ZM216.981 29.0369V31.8492H220.266C220.372 31.8492 220.448 31.7742 220.448 31.6692V29.2094C220.448 29.1044 220.372 29.0294 220.266 29.0294H216.981V29.0369Z" fill="#2A2725"/>
<path d="M229.658 38.6138H227.026V26.6746H229.658V38.6138Z" fill="#2A2725"/>
<path d="M242.753 38.6138H240.211L236.183 31.6542V38.6138H233.641V26.6746H236.183L240.211 33.6716V26.6746H242.753V38.6138Z" fill="#2A2725"/>
<path d="M250.498 32.1042H254.906V36.6414C254.906 37.7363 254.018 38.6138 252.911 38.6138H248.647C247.54 38.6138 246.652 37.7363 246.652 36.6414V28.6469C246.652 27.552 247.54 26.6746 248.647 26.6746H252.888C253.996 26.6746 254.883 27.552 254.883 28.6469V30.1018L252.312 30.5293V29.2169C252.312 29.1119 252.236 29.0369 252.129 29.0369H249.467C249.36 29.0369 249.284 29.1119 249.284 29.2169V36.064C249.284 36.1689 249.36 36.2439 249.467 36.2439H252.152C252.258 36.2439 252.334 36.1689 252.334 36.064V34.3616H250.498V32.1042Z" fill="#2A2725"/>
<path d="M270.193 26.6746C271.301 26.6746 272.188 27.552 272.188 28.6469V36.6414C272.188 37.7363 271.301 38.6138 270.193 38.6138H263.949V26.6746H270.193ZM266.582 29.0444V36.2514H269.374C269.48 36.2514 269.556 36.1764 269.556 36.0714V29.2244C269.556 29.1194 269.48 29.0444 269.374 29.0444H266.582Z" fill="#2A2725"/>
<path d="M276.088 26.6746H283.598V29.0444H278.72V31.3243H283.219V33.6941H278.72V36.2589H283.621V38.6288H276.095V26.6896L276.088 26.6746Z" fill="#2A2725"/>
<path d="M295.183 36.6414C295.183 37.7363 294.295 38.6138 293.188 38.6138H289.091C287.983 38.6138 287.096 37.7363 287.096 36.6414V35.299L289.675 34.8715V36.0714C289.675 36.1764 289.751 36.2514 289.857 36.2514H292.399C292.505 36.2514 292.581 36.1764 292.581 36.0714V34.4066C292.581 34.2791 292.49 34.2116 292.345 34.1741C292.034 34.0841 291.078 33.8141 288.825 33.1841C287.756 32.8767 287.141 32.4117 287.141 31.3168V28.6469C287.141 27.552 288.029 26.6746 289.136 26.6746H293.127C294.234 26.6746 295.122 27.552 295.122 28.6469V29.8994L292.543 30.3268V29.2169C292.543 29.1119 292.467 29.0369 292.361 29.0369H289.933C289.827 29.0369 289.751 29.1119 289.751 29.2169V30.7618C289.751 30.9043 289.842 30.9568 289.948 30.9943C290.13 31.0468 291.162 31.3393 293.559 31.9992C294.591 32.2842 295.19 32.7717 295.19 33.8666V36.6489L295.183 36.6414Z" fill="#2A2725"/>
<path d="M301.525 38.6138H298.893V26.6746H301.525V38.6138Z" fill="#2A2725"/>
<path d="M309.271 32.1042H313.679V36.6414C313.679 37.7363 312.791 38.6138 311.684 38.6138H307.42C306.312 38.6138 305.425 37.7363 305.425 36.6414V28.6469C305.425 27.552 306.312 26.6746 307.42 26.6746H311.661C312.768 26.6746 313.656 27.552 313.656 28.6469V30.1018L311.084 30.5293V29.2169C311.084 29.1119 311.008 29.0369 310.902 29.0369H308.239C308.133 29.0369 308.057 29.1119 308.057 29.2169V36.064C308.057 36.1689 308.133 36.2439 308.239 36.2439H310.925C311.031 36.2439 311.107 36.1689 311.107 36.064V34.3616H309.271V32.1042Z" fill="#2A2725"/>
<path d="M326.5 38.6138H323.958L319.93 31.6542V38.6138H317.389V26.6746H319.93L323.958 33.6716V26.6746H326.5V38.6138Z" fill="#2A2725"/>
</svg>
