<svg width="205" height="39" viewBox="0 0 205 39" fill="none" xmlns="http://www.w3.org/2000/svg">
<path d="M73.5779 0.628662L62.5484 29.9518L51.5189 0.628662H42.7544L57.0034 38.6212H68.0859L82.3348 0.628662H73.5779Z" fill="#2A2725"/>
<path d="M3.78006 38.6212H34.0884L37.3685 29.8768V0.628662H20.0591V8.78063H28.6115V29.8768H9.2645V0.628662H0.5V29.8768L3.78006 38.6212Z" fill="#2A2725"/>
<path d="M115.832 29.8768H96.4777V0.628662H87.7132V29.8768L91.0008 38.6212H121.309L124.597 29.8768V0.628662H115.832V29.8768Z" fill="#2A2725"/>
<path d="M123.627 36.4238H125.256V36.6712H124.582V38.6061H124.309V36.6712H123.627V36.4238ZM125.907 37.0012V38.6061H125.642V36.4163H125.907L126.574 37.8337L127.248 36.4163H127.506V38.6061H127.241V37.0012L126.695 38.1786H126.468L125.915 37.0012H125.907Z" fill="#2A2725"/>
<path d="M142.232 8.18823C143.338 8.18823 144.224 9.06568 144.224 10.1606V18.1551C144.224 19.25 143.338 20.1275 142.232 20.1275H135.998V8.18823H142.232ZM138.626 10.5581V17.7651H141.414C141.52 17.7651 141.596 17.6901 141.596 17.5851V10.7381C141.596 10.6331 141.52 10.5581 141.414 10.5581H138.626Z" fill="#2A2725"/>
<path d="M150.746 20.135H148.118V8.18823H150.746V20.1275V20.135Z" fill="#2A2725"/>
<path d="M158.481 13.6254H162.882V18.1626C162.882 19.2575 161.996 20.135 160.89 20.135H156.632C155.526 20.135 154.64 19.2575 154.64 18.1626V10.1606C154.64 9.06568 155.526 8.18823 156.632 8.18823H160.867C161.973 8.18823 162.859 9.06568 162.859 10.1606V11.6155L160.291 12.043V10.7306C160.291 10.6256 160.215 10.5506 160.109 10.5506H157.45C157.344 10.5506 157.269 10.6256 157.269 10.7306V17.5776C157.269 17.6826 157.344 17.7576 157.45 17.7576H160.132C160.238 17.7576 160.314 17.6826 160.314 17.5776V15.8752H158.481V13.6179V13.6254Z" fill="#2A2725"/>
<path d="M169.215 20.135H166.586V8.18823H169.215V20.1275V20.135Z" fill="#2A2725"/>
<path d="M172.381 8.18823H181.237V10.5581H178.123V20.135H175.495V10.5581H172.381V8.18823V8.18823Z" fill="#2A2725"/>
<path d="M194.024 20.135H191.342L190.584 17.7652H186.873L186.145 20.135H183.464L187.41 8.1958H190.054L194.024 20.135V20.135ZM187.645 15.4703H189.819L188.736 11.4881L187.653 15.4703H187.645Z" fill="#2A2725"/>
<path d="M197.069 8.18823H199.697V17.7651H204.5V20.135H197.076V8.18823H197.069Z" fill="#2A2725"/>
<path d="M138.543 32.3367V38.6138H136.005V26.6746H138.543L141.565 33.8291L144.588 26.6746H147.126V38.6138H144.588V32.3367L142.664 36.7689H140.452L138.535 32.3367H138.543Z" fill="#2A2725"/>
<path d="M151.11 26.6746H158.609V29.0444H153.739V31.3243H158.231V33.6941H153.739V36.2589H158.632V38.6288H151.118V26.6896L151.11 26.6746Z" fill="#2A2725"/>
<path d="M168.472 26.6746C169.578 26.6746 170.465 27.552 170.465 28.6469V36.6414C170.465 37.7363 169.578 38.6138 168.472 38.6138H162.238V26.6746H168.472ZM164.867 29.0444V36.2514H167.654C167.76 36.2514 167.836 36.1764 167.836 36.0714V29.2244C167.836 29.1194 167.76 29.0444 167.654 29.0444H164.867V29.0444Z" fill="#2A2725"/>
<path d="M176.987 38.6138H174.358V26.6746H176.987V38.6138Z" fill="#2A2725"/>
<path d="M190.584 38.6138H187.903L187.145 36.2439H183.433L182.706 38.6138H180.025L183.971 26.6746H186.615L190.584 38.6138V38.6138ZM184.206 33.9491H186.38L185.297 29.9668L184.214 33.9491H184.206Z" fill="#2A2725"/>
</svg>
